<?xml version="1.0" encoding="utf-8"?>
<!-- Generator: Adobe Illustrator 24.1.2, SVG Export Plug-In . SVG Version: 6.00 Build 0)  -->
<svg version="1.1" id="Layer_1" xmlns="http://www.w3.org/2000/svg" xmlns:xlink="http://www.w3.org/1999/xlink" x="0px" y="0px"
	 viewBox="0 0 40 40" style="enable-background:new 0 0 40 40;" xml:space="preserve">
<style type="text/css">
	.st0{fill:#FFFFFF;}
</style>
<circle class="st0" cx="20" cy="20" r="11"/>
<path class="st0" d="M21.64,5.33c0,1.46-0.73,2.64-1.64,2.64s-1.64-1.18-1.64-2.64S19.2,0.78,20,0.78S21.64,3.87,21.64,5.33z"/>
<path class="st0" d="M12.7,7.17c0.86,1.18,0.96,2.57,0.23,3.1c-0.73,0.53-2.02,0.01-2.88-1.17S8.06,4.92,8.7,4.45
	C9.35,3.98,11.85,5.99,12.7,7.17z"/>
<path class="st0" d="M6.55,13.91c1.39,0.45,2.29,1.51,2.01,2.38c-0.28,0.86-1.63,1.19-3.02,0.74s-4.07-2.21-3.82-2.97
	C1.96,13.3,5.17,13.46,6.55,13.91z"/>
<path class="st0" d="M5.54,22.97c1.39-0.45,2.74-0.12,3.02,0.74c0.28,0.86-0.62,1.92-2.01,2.38s-4.59,0.6-4.84-0.15
	S4.15,23.43,5.54,22.97z"/>
<path class="st0" d="M10.05,30.91c0.86-1.18,2.15-1.71,2.88-1.17c0.73,0.53,0.63,1.92-0.23,3.1c-0.86,1.18-3.36,3.19-4,2.72
	C8.06,35.08,9.19,32.09,10.05,30.91z"/>
<path class="st0" d="M18.36,34.67c0-1.46,0.73-2.64,1.64-2.64s1.64,1.18,1.64,2.64S20.8,39.22,20,39.22S18.36,36.13,18.36,34.67z"/>
<path class="st0" d="M27.3,32.83c-0.86-1.18-0.96-2.57-0.23-3.1c0.73-0.53,2.02-0.01,2.88,1.17c0.86,1.18,1.99,4.18,1.35,4.65
	C30.65,36.02,28.15,34.01,27.3,32.83z"/>
<path class="st0" d="M33.45,26.09c-1.39-0.45-2.29-1.51-2.01-2.38c0.28-0.86,1.63-1.19,3.02-0.74s4.07,2.21,3.82,2.97
	C38.04,26.7,34.83,26.54,33.45,26.09z"/>
<path class="st0" d="M34.46,17.03c-1.39,0.45-2.74,0.12-3.02-0.74c-0.28-0.86,0.62-1.92,2.01-2.38s4.59-0.6,4.84,0.15
	C38.53,14.82,35.85,16.57,34.46,17.03z"/>
<path class="st0" d="M29.95,9.09c-0.86,1.18-2.15,1.71-2.88,1.17c-0.73-0.53-0.63-1.92,0.23-3.1s3.36-3.19,4-2.72
	C31.94,4.92,30.81,7.91,29.95,9.09z"/>
</svg>
