<?xml version="1.0" encoding="utf-8"?>
<!-- Generator: Adobe Illustrator 26.0.2, SVG Export Plug-In . SVG Version: 6.00 Build 0)  -->
<svg version="1.1" id="Layer_1" xmlns="http://www.w3.org/2000/svg" xmlns:xlink="http://www.w3.org/1999/xlink" x="0px" y="0px"
	 viewBox="0 0 40 40" style="enable-background:new 0 0 40 40;" xml:space="preserve">
<style type="text/css">
	.st0{fill:#0C183F;}
	.st1{fill:#48ABE0;}
</style>
<path class="st0" d="M34.29,38.12H5.71c-2.1,0-3.82-1.72-3.82-3.82V5.71c0-2.1,1.72-3.82,3.82-3.82h28.59c2.1,0,3.82,1.72,3.82,3.82
	v28.59C38.12,36.4,36.4,38.12,34.29,38.12z"/>
<g>
	<path class="st1" d="M10.67,30.53H6.81V9.15h6.33c2.5,0,4.35,0.63,5.55,1.89c1.21,1.26,1.81,2.74,1.81,4.46
		c0,1.95-0.65,3.53-1.96,4.75c-1.31,1.21-2.96,1.82-4.97,1.82h-2.92V30.53z M10.67,18.75h2.14c1.19,0,2.1-0.29,2.73-0.88
		c1.25-1.08,1.22-3.49,0.07-4.59c-0.58-0.63-1.63-0.94-3.14-0.94h-1.79V18.75z"/>
	<path class="st1" d="M21.1,26.89l3.35-0.64c0.51,1.28,1.64,1.93,3.38,1.93c2.21,0,3.32-0.65,3.32-1.96c0-0.42-0.17-0.76-0.52-1.03
		c-0.34-0.27-0.75-0.45-1.22-0.55l-2.88-0.55c-3.2-0.62-4.79-2.18-4.79-4.68c0-1.4,0.51-2.59,1.52-3.56
		c1.01-0.98,2.52-1.47,4.53-1.47c3.34,0,5.38,1.23,6.12,3.68l-3.18,0.64c-0.33-1.19-1.29-1.79-2.85-1.79c-1.9,0-2.85,0.6-2.85,1.79
		c0,0.83,0.77,1.39,2.3,1.71l3.4,0.7c2.64,0.54,3.96,2.06,3.96,4.54c0,1.74-0.68,3.05-2.04,3.91c-1.36,0.86-2.97,1.29-4.84,1.29
		c-1.62,0-3.05-0.33-4.29-0.98C22.29,29.22,21.48,28.23,21.1,26.89z"/>
</g>
</svg>
